# File generated by IfcOpenShell 0.8.0
g product-71e40b2f-c393-42aa-88ed-6775ccbdea0b-body
s 1
v -6.05883260369241 -2.56467119707469 0
v -6.05883260369241 -2.56467119707469 -0.3
v -6.05883260369241 6.89092880292531 -0.3
v -6.05883260369241 6.89092880292531 0
v -6.05883260369241 6.89092880292531 0
v -6.05883260369241 6.89092880292531 -0.3
v 6.68566739630759 6.89092880292531 -0.3
v 6.68566739630759 6.89092880292531 0
v 6.68566739630759 6.89092880292531 0
v 6.68566739630759 6.89092880292531 -0.3
v 6.68566739630759 -2.56467119707469 -0.3
v 6.68566739630759 -2.56467119707469 0
v 6.68566739630759 -2.56467119707469 0
v 6.68566739630759 -2.56467119707469 -0.3
v -6.05883260369241 -2.56467119707469 -0.3
v -6.05883260369241 -2.56467119707469 0
v -6.05883260369241 -2.56467119707469 0
v -6.05883260369241 6.89092880292531 0
v 6.68566739630759 6.89092880292531 0
v 6.68566739630759 -2.56467119707469 0
v -6.05883260369241 -2.56467119707469 -0.3
v -6.05883260369241 6.89092880292531 -0.3
v 6.68566739630759 6.89092880292531 -0.3
v 6.68566739630759 -2.56467119707469 -0.3
vn -1 0 0
vn -1 0 0
vn -1 0 0
vn -1 0 0
vn 0 1 0
vn 0 1 0
vn 0 1 0
vn 0 1 0
vn 1 0 0
vn 1 0 0
vn 1 0 0
vn 1 0 0
vn -0 -1 0
vn -0 -1 0
vn -0 -1 0
vn -0 -1 0
vn -0 -0 1
vn -0 -0 1
vn -0 -0 1
vn -0 -0 1
vn 0 0 -1
vn 0 0 -1
vn 0 0 -1
vn 0 0 -1
usemtl IfcSurfaceStyleRendering-128
f 2//2 1//1 4//4
f 3//3 2//2 4//4
f 6//6 5//5 8//8
f 7//7 6//6 8//8
f 10//10 9//9 12//12
f 11//11 10//10 12//12
f 14//14 13//13 16//16
f 15//15 14//14 16//16
f 18//18 17//17 19//19
f 17//17 20//20 19//19
f 23//23 21//21 22//22
f 23//23 24//24 21//21
g product-71e40b2f-c393-42aa-88ed-6775ccbdea24-body
s 1
v -6.05883260369241 -2.5646711970747 3
v -6.05883260369241 -2.5646711970747 2.7
v -6.05883260369241 16.1249288029253 2.7
v -6.05883260369241 16.1249288029253 3
v -6.05883260369241 16.1249288029253 3
v -6.05883260369241 16.1249288029253 2.7
v 8.89866739630759 16.1249288029253 2.7
v 8.89866739630759 16.1249288029253 3
v 8.89866739630759 16.1249288029253 3
v 8.89866739630759 16.1249288029253 2.7
v 8.89866739630759 -2.5646711970747 2.7
v 8.89866739630759 -2.5646711970747 3
v 8.89866739630759 -2.5646711970747 3
v 8.89866739630759 -2.5646711970747 2.7
v -6.05883260369241 -2.5646711970747 2.7
v -6.05883260369241 -2.5646711970747 3
v -6.05883260369241 -2.5646711970747 3
v -6.05883260369241 16.1249288029253 3
v 8.89866739630759 16.1249288029253 3
v 8.89866739630759 -2.5646711970747 3
v -6.05883260369241 -2.5646711970747 2.7
v -6.05883260369241 16.1249288029253 2.7
v 8.89866739630759 16.1249288029253 2.7
v 8.89866739630759 -2.5646711970747 2.7
vn -1 0 0
vn -1 0 0
vn -1 0 0
vn -1 0 0
vn 0 1 0
vn 0 1 0
vn 0 1 0
vn 0 1 0
vn 1 0 0
vn 1 0 0
vn 1 0 0
vn 1 0 0
vn -0 -1 0
vn -0 -1 0
vn -0 -1 0
vn -0 -1 0
vn -0 -0 1
vn -0 -0 1
vn -0 -0 1
vn -0 -0 1
vn 0 0 -1
vn 0 0 -1
vn 0 0 -1
vn 0 0 -1
usemtl IfcSurfaceStyleRendering-128
f 26//26 25//25 28//28
f 27//27 26//26 28//28
f 30//30 29//29 32//32
f 31//31 30//30 32//32
f 34//34 33//33 36//36
f 35//35 34//34 36//36
f 38//38 37//37 40//40
f 39//39 38//38 40//40
f 42//42 41//41 43//43
f 41//41 44//44 43//43
f 47//47 45//45 46//46
f 47//47 48//48 45//45
